<svg xmlns="http://www.w3.org/2000/svg" width="195" height="50" viewBox="0 0 195 50">
  <g id="Component_3_1" data-name="Component 3 – 1" transform="translate(2.5 2.5)">
    <circle id="Ellipse_3" data-name="Ellipse 3" cx="4" cy="4" r="4" transform="translate(61 39)" fill="#484848"/>
    <g id="Component_2_2" data-name="Component 2 – 2" transform="translate(68.5 0.5)">
      <g id="Component_1_1" data-name="Component 1 – 1">
        <path id="Path_19" data-name="Path 19" d="M0,0H56.55" transform="translate(0 0)" fill="none" stroke="#484848" stroke-linecap="round" stroke-width="4"/>
        <path id="Path_18" data-name="Path 18" d="M0,0V37.056" transform="translate(18 7.444)" fill="none" stroke="#484848" stroke-linecap="round" stroke-width="4"/>
        <path id="Path_11" data-name="Path 11" d="M0,0V17.869" transform="translate(91 0)" fill="none" stroke="#484848" stroke-linecap="round" stroke-width="4"/>
        <path id="Path_15" data-name="Path 15" d="M.189,41.275c0,.008,0,.016,0,0A27.974,27.974,0,0,0,2.542,52.689,16.85,16.85,0,0,0,4.42,55.9,11.884,11.884,0,0,0,7.437,58.78a6.167,6.167,0,0,0,6.007.416,9.691,9.691,0,0,0,2.909-2.053c3.229-3.149,3.712-8.316,3.712-8.316" transform="translate(63 -15.275)" fill="none" stroke="#484848" stroke-linecap="round" stroke-width="4"/>
        <path id="Path_16" data-name="Path 16" d="M.189,60.125c0-.008,0-.016,0,0A28.964,28.964,0,0,1,2.542,48.5,17.248,17.248,0,0,1,4.42,45.229,11.985,11.985,0,0,1,7.437,42.29a6.069,6.069,0,0,1,6.007-.424,9.69,9.69,0,0,1,2.909,2.091c3.229,3.208,3.712,8.473,3.712,8.473" transform="translate(63 -41.275)" fill="none" stroke="#484848" stroke-linecap="round" stroke-width="4"/>
        <path id="Path_12" data-name="Path 12" d="M0,0V17.869" transform="translate(113 0)" fill="none" stroke="#484848" stroke-linecap="round" stroke-width="4"/>
        <path id="Path_13" data-name="Path 13" d="M0,0V17.869" transform="translate(113 26)" fill="none" stroke="#484848" stroke-linecap="round" stroke-width="4"/>
        <path id="Path_14" data-name="Path 14" d="M0,0V17.869" transform="translate(91 26)" fill="none" stroke="#484848" stroke-linecap="round" stroke-width="4"/>
        <line id="Line_7" data-name="Line 7" x2="24" transform="translate(28 22)" fill="none" stroke="#484848" stroke-linecap="round" stroke-width="4"/>
        <line id="Line_5" data-name="Line 5" x2="40" transform="translate(82 22)" fill="none" stroke="#484848" stroke-linecap="round" stroke-width="4"/>
      </g>
      <path id="Path_17" data-name="Path 17" d="M0,0H25.481" transform="translate(28 44)" fill="none" stroke="#484848" stroke-linecap="round" stroke-width="4"/>
    </g>
    <path id="Path_32" data-name="Path 32" d="M28,0,56,45,28,19.338,0,45Z" fill="#fff" stroke="#484848" stroke-linecap="round" stroke-linejoin="round" stroke-width="5"/>
  </g>
</svg>
